<svg width="13" height="16" viewBox="0 0 13 16" fill="none" xmlns="http://www.w3.org/2000/svg">
<path d="M8.83069 2.79828H1.28338C0.575192 2.79828 0 3.36514 0 4.06308V14.7352C0 15.4331 0.575192 16 1.28338 16H8.83069C9.53887 16 10.1141 15.4331 10.1141 14.7352V4.06308C10.1107 3.36514 9.53555 2.79828 8.83069 2.79828ZM9.21304 14.7319C9.21304 14.9416 9.04015 15.112 8.82737 15.112H1.28005C1.06726 15.112 0.894373 14.9416 0.894373 14.7319V4.06308C0.894373 3.85337 1.06726 3.68298 1.28005 3.68298H8.82737C9.04015 3.68298 9.21304 3.85337 9.21304 4.06308V14.7319Z" fill="#AAAAAA"/>
<path d="M11.7166 0H4.16931C3.46113 0 2.88593 0.566865 2.88593 1.2648C2.88593 1.51055 3.08542 1.70715 3.33478 1.70715C3.58414 1.70715 3.78363 1.51055 3.78363 1.2648C3.78363 1.05509 3.95652 0.884702 4.16931 0.884702H11.7166C11.9294 0.884702 12.1023 1.05509 12.1023 1.2648V11.9369C12.1023 12.1466 11.9294 12.317 11.7166 12.317C11.4673 12.317 11.2678 12.5136 11.2678 12.7594C11.2678 13.0051 11.4673 13.2017 11.7166 13.2017C12.4248 13.2017 13 12.6349 13 11.9369V1.2648C13 0.566865 12.4248 0 11.7166 0Z" fill="#AAAAAA"/>
</svg>
