<svg width="16" height="16" viewBox="0 0 16 16" fill="none" xmlns="http://www.w3.org/2000/svg">
<path d="M15.502 1.94684L14.0521 0.496839C13.3896 -0.165629 12.3118 -0.165597 11.6493 0.496839C11.0256 1.12062 1.49887 10.6481 0.862216 11.2848C0.794403 11.3526 0.748966 11.4427 0.732778 11.5308L0.00784109 15.4458C-0.0202527 15.5976 0.0281223 15.7535 0.137279 15.8627C0.24656 15.972 0.402497 16.0202 0.554091 15.9922L4.46875 15.2671C4.55922 15.2502 4.64815 15.2044 4.71484 15.1377L15.502 4.34974C16.166 3.68574 16.1661 2.61093 15.502 1.94684ZM1.05378 14.9461L1.49231 12.5778L3.42187 14.5075L1.05378 14.9461ZM4.3834 14.1432L1.85656 11.6163L11.0819 2.39024L13.6087 4.91727L4.3834 14.1432ZM14.8391 3.68683L14.2716 4.25436L11.7447 1.72734L12.3122 1.15981C12.6091 0.862869 13.0922 0.862838 13.3892 1.15981L14.8391 2.6098C15.1367 2.90746 15.1367 3.38915 14.8391 3.68683Z" fill="#AAAAAA"/>
</svg>
